<svg id="Pencil--Streamline-Atlas" xmlns="http://www.w3.org/2000/svg" viewBox="-0.5 -0.5 16 16" height="16" width="16">
  <desc>
    Pencil Streamline Icon: https://streamlinehq.com
  </desc>
  <defs></defs>
  <path d="M13.443750000000001 4.53125 5 12.9875l-3.4375 0.44999999999999996 0.44999999999999996 -3.4375L10.46875 1.5562500000000001a2.0875 2.0875 0 0 1 1.4874999999999998 -0.625 2.10625 2.10625 0 0 1 2.10625 2.1125 2.0875 2.0875 0 0 1 -0.61875 1.4874999999999998Z" fill="none" stroke="#000000" stroke-miterlimit="10" stroke-width="1"></path>
  <path d="m9.3 2.725 2.9749999999999996 2.9749999999999996" fill="none" stroke="#000000" stroke-miterlimit="10" stroke-width="1"></path>
  <path d="m5 12.98125 -3.4375 0.45625 0.44999999999999996 -3.4375a4.11875 4.11875 0 0 1 1.875 1.0875A4.11875 4.11875 0 0 1 5 12.98125Z" fill="none" stroke="#000000" stroke-miterlimit="10" stroke-width="1"></path>
  <path d="m10.787500000000001 4.2125 -6.875 6.875" fill="none" stroke="#000000" stroke-miterlimit="10" stroke-width="1"></path>
</svg>