<svg viewBox="-0.5 -0.5 16 16" fill="none" xmlns="http://www.w3.org/2000/svg" id="Square-Forward--Streamline-Solar-Ar" height="16" width="16">
  <desc>
    Square Forward Streamline Icon: https://streamlinehq.com
  </desc>
  <path d="M13.75 7.5c0 2.94625 0 4.4194375 -0.9153125 5.3346875C11.9194375 13.75 10.44625 13.75 7.5 13.75c-2.94628125 0 -4.41941875 0 -5.33470625 -0.9153125C1.25 11.9194375 1.25 10.44625 1.25 7.5c0 -2.94628125 0 -4.41941875 0.91529375 -5.33470625C3.0805812500000003 1.25 4.55371875 1.25 7.5 1.25" stroke="#000000" stroke-linecap="round" stroke-width="1"></path>
  <path d="m10.0968125 2.1463437499999998 1.4733125 1.27685625c1.0141875 0.8789562500000001 1.5212500000000002 1.3184375000000002 1.5212500000000002 1.889225 0 0.5707875 -0.5070625 1.0102625 -1.5212500000000002 1.8892l-1.4733125 1.276875c-0.4459375 0.38649999999999995 -0.6689375 0.57975 -0.8516250000000001 0.49631250000000005 -0.1826875 -0.0834375 -0.1826875 -0.3785 -0.1826875 -0.9686250000000001v-0.9526875c-1.875 0 -3.90625 0.8705625 -4.6875 2.3214375 0 -4.64286875 2.77775 -5.803587500000001 4.6875 -5.803587500000001V2.61865c0 -0.5901375 0 -0.8852062500000001 0.1826875 -0.9686312499999999 0.1826875 -0.08341875 0.4056875 0.10982499999999999 0.8516250000000001 0.496325Z" stroke="#000000" stroke-linecap="round" stroke-linejoin="round" stroke-width="1"></path>
</svg>