<svg viewBox="-0.5 -0.5 16 16" fill="none" xmlns="http://www.w3.org/2000/svg" id="Inbox--Streamline-Solar-Ar" height="16" width="16">
  <desc>
    Inbox Streamline Icon: https://streamlinehq.com
  </desc>
  <path d="M1.25 7.5c0 -2.94628125 0 -4.41941875 0.91529375 -5.33470625C3.0805812500000003 1.25 4.55371875 1.25 7.5 1.25c2.94625 0 4.4194375 0 5.3346875 0.91529375C13.75 3.0805812500000003 13.75 4.55371875 13.75 7.5c0 2.94625 0 4.4194375 -0.9153125 5.3346875C11.9194375 13.75 10.44625 13.75 7.5 13.75c-2.94628125 0 -4.41941875 0 -5.33470625 -0.9153125C1.25 11.9194375 1.25 10.44625 1.25 7.5Z" stroke="#000000" stroke-width="1"></path>
  <path d="M1.25 8.125h1.9751625000000002c0.56573125 0 0.8486 0 1.0972374999999999 0.114375 0.24864375 0.11431250000000001 0.43273125 0.329125 0.8009062499999999 0.758625l0.3783875 0.4415c0.36817500000000003 0.4295 0.5522625 0.6443125 0.80093125 0.758625 0.24862499999999998 0.114375 0.5315000000000001 0.114375 1.0971875 0.114375h0.200375c0.5656875 0 0.8485624999999999 0 1.0971875 -0.114375 0.24868749999999998 -0.11431250000000001 0.43275 -0.329125 0.8009375000000001 -0.758625l0.378375 -0.4415c0.3681875 -0.4295 0.55225 -0.6443125 0.8009375000000001 -0.758625 0.24862499999999998 -0.114375 0.5315000000000001 -0.114375 1.0971875 -0.114375H13.75" stroke="#000000" stroke-linecap="round" stroke-width="1"></path>
</svg>