<svg viewBox="-0.5 -0.5 16 16" fill="none" xmlns="http://www.w3.org/2000/svg" id="Document-Add--Streamline-Solar-Ar" height="16" width="16">
  <desc>
    Document Add Streamline Icon: https://streamlinehq.com
  </desc>
  <path d="m11.3625 5.02458125 0.2896875 -0.28965c0.47987500000000005 -0.47990625000000003 1.258 -0.47990625000000003 1.737875 0 0.4799375 0.47990625000000003 0.4799375 1.2579937499999998 0 1.7378812499999998l-0.28962499999999997 0.2896875M11.3625 5.02458125s0.036250000000000004 0.6155062499999999 0.5793125 1.1586c0.543125 0.54306875 1.158625 0.57931875 1.158625 0.57931875M11.3625 5.02458125l-2.662875 2.6628562500000004c-0.180375 0.180375 -0.2705625 0.2705625 -0.348125 0.37 -0.0914375 0.1173125 -0.169875 0.24425 -0.233875 0.3785 -0.05425 0.113875 -0.094625 0.23481249999999998 -0.17525 0.47681250000000003L7.684125000000001 9.6875l-0.08356250000000001 0.250625m5.499874999999999 -3.175625 -2.662875 2.662875c-0.180375 0.180375 -0.2705625 0.2705625 -0.37 0.348125 -0.1173125 0.0914375 -0.24425 0.169875 -0.3785 0.233875 -0.113875 0.05425 -0.23481249999999998 0.094625 -0.47681250000000003 0.17525l-0.77475 0.25825 -0.250625 0.08356250000000001m0 0 -0.2506875 0.08356250000000001c-0.1190625 0.0396875 -0.250375 0.008687499999999999 -0.339125 -0.0800625 -0.08875 -0.08875 -0.11975 -0.22006250000000002 -0.0800625 -0.339125l0.08356250000000001 -0.2506875m0.5863125 0.5863125 -0.5863125 -0.5863125" stroke="#000000" stroke-width="1"></path>
  <path d="M5 8.125h1.5625" stroke="#000000" stroke-linecap="round" stroke-width="1"></path>
  <path d="M5 5.625h4.0625" stroke="#000000" stroke-linecap="round" stroke-width="1"></path>
  <path d="M5 10.625h0.9375" stroke="#000000" stroke-linecap="round" stroke-width="1"></path>
  <path d="M12.39275 1.98223125C11.660562500000001 1.25 10.482 1.25 8.125 1.25h-1.25C4.517975 1.25 3.33946875 1.25 2.60723125 1.98223125 1.875 2.71446875 1.875 3.8929750000000003 1.875 6.25v2.5c0 2.3569999999999998 0 3.5355625 0.73223125 4.26775C3.33946875 13.75 4.517975 13.75 6.875 13.75h1.25c2.3569999999999998 0 3.5355625 0 4.26775 -0.73225 0.5894375000000001 -0.5894375000000001 0.704375 -1.4680000000000002 0.7268125000000001 -3.0177500000000004" stroke="#000000" stroke-linecap="round" stroke-width="1"></path>
</svg>